<svg width="438" height="395" viewBox="0 0 438 395" fill="none" xmlns="http://www.w3.org/2000/svg">
<path d="M56.0332 289.15L82.4889 299.746C94.4877 304.551 106.924 308.182 119.624 310.588L147.568 315.881V394.801H56.0332V289.15Z" fill="#00FFA1"/>
<path d="M290.432 247.072L381.967 113.352V350.227L290.432 394.801V247.072Z" fill="#00FFA1"/>
<path d="M290.432 0.00191832H381.967V87.8871L290.432 114.635V0.00191832Z" fill="#00FFA1"/>
<path d="M55.9742 155.697V133.803H147.568V0.00191832L0 64.875V75.0693C21.6264 81.5566 33.0757 86.6538 44.5249 97.8036C55.9742 114.688 55.9742 132.065 55.9742 155.697Z" fill="#00FFA1"/>
<path d="M382.026 304.036L382.026 240.816L290.432 240.816L290.432 394.801L438 394.738L438 384.557C416.374 378.078 404.924 372.988 393.475 361.853C382.026 344.991 382.026 327.637 382.026 304.036Z" fill="#00FFA1"/>
<path fill-rule="evenodd" clip-rule="evenodd" d="M203.925 130.748L197.59 133.257C187.776 136.385 163.507 145.814 144.936 158.508C144.394 158.805 143.855 159.107 143.318 159.414C134.465 165.765 126.847 171.309 120.178 176.308C113.687 181.979 107.533 188.035 101.643 193.981L100.475 195.161C90.1065 205.509 80.3496 217.197 72.0766 229.456C73.1513 224.618 73.6988 221.063 73.0611 219.793C66.137 228.466 59.0513 238.585 49.6179 252.169C49.3954 252.489 49.1757 252.804 48.9588 253.112C39.4088 273.317 31.3564 298.001 27.6005 317.187C26.8645 318.896 26.3232 320.655 26.6962 322.206C32.9363 310.228 42.3428 296.314 50.1729 285.326L51.5663 283.377C61.0243 270.095 71.0149 257.369 82.1446 245.437L84.0768 243.402C87.7806 239.5 91.545 235.69 95.479 232.019C97.7274 229.945 99.9513 227.854 102.141 225.718C111.435 216.565 122.376 208.611 133.135 201.268L134.44 200.383C148.942 190.519 164.171 181.78 180.345 174.934C181.555 174.424 182.763 173.91 183.963 173.378L183.964 173.378C220.015 159.846 220.015 159.846 257.394 150.352C265.437 148.261 273.41 146.014 281.336 143.516L283.177 142.932C286.978 141.73 290.775 140.516 294.564 139.277C296.302 138.706 298.041 138.137 299.782 137.576C306.931 135.278 313.87 132.661 320.754 129.659C322.51 128.888 324.266 128.12 326.029 127.365C338.114 122.209 349.99 116.18 360.201 107.799L362.06 106.193C364.763 104.37 367.184 102.642 369.496 100.341C371.591 98.2185 373.766 96.2995 376.078 94.4153L376.078 94.4156C375.188 95.8664 375.188 95.8665 374.76 97.4097C369.757 118.576 360.378 136.15 345.521 152.159L344.209 153.544C323.837 175.814 296.616 191.794 269.025 203.426L267.185 204.194C254.058 209.679 240.756 214.136 226.984 217.715C223.588 218.594 220.209 219.522 216.834 220.477C219.298 221.541 219.298 221.541 223.265 220.777L225.012 220.419C226.281 220.169 227.549 219.92 228.817 219.67C230.972 219.235 233.127 218.801 235.285 218.378C266.429 212.292 298.369 205.219 326.822 190.712L328.858 189.653C323.582 197.095 317.922 204.287 310.734 209.966C309.63 210.809 308.527 211.655 307.44 212.521C278.647 235.632 240.331 245.99 204.286 250.956L201.94 251.277C188.83 253.162 175.766 254.432 162.549 255.235L160.627 255.35C159.417 255.425 158.207 255.501 156.996 255.577C153.735 255.753 150.911 256.006 147.884 257.309C148.814 257.4 149.745 257.491 150.676 257.582C181.245 260.577 212.632 263.652 243.276 260.199C246.325 259.841 249.374 259.536 252.432 259.267L254.13 259.121C256.152 258.945 258.175 258.769 260.198 258.595L258.665 259.778L256.563 261.384C251.029 265.633 245.387 269.404 238.958 272.172L236.919 273.011C229.538 276.057 222.143 278.389 214.335 280.055L212.425 280.447C163.888 285.664 163.888 285.664 115.042 281.944L115.041 281.944L112.127 281.726L112.062 282.484C113.612 282.879 115.163 283.273 116.715 283.663L118.658 284.151C121.92 284.984 125.175 285.794 128.485 286.416L130.677 286.8L132.9 287.191L134.574 287.482C147.121 289.837 174.489 294.745 183.592 295.53C185.899 295.75 188.206 295.965 190.514 296.176L193.375 296.437C200.655 297.132 207.553 297.409 214.819 296.577C216.379 296.384 217.933 296.203 219.5 296.076C230.445 295.306 241.287 293.298 251.418 288.961L253.851 287.84C261.913 284.199 268.974 280.185 275.42 274.078L276.546 272.992L276.712 272.832L276.712 272.832C280.126 269.55 283.543 266.266 285.943 262.152C291.302 252.211 295.667 248.273 306.425 244.511C310.85 242.996 314.624 240.976 318.634 238.56L320.941 237.097C328.895 232.092 335.549 226.201 341.843 219.244L343.27 217.633C347.147 213.313 350.415 208.891 353.373 203.892L354.577 201.802C358.03 195.954 360.898 189.822 363.097 183.391C363.619 181.787 364.164 180.211 364.771 178.636C365.898 175.713 366.941 172.911 367.576 169.836C367.606 169.683 367.635 169.53 367.665 169.379C368.402 165.57 368.988 162.544 371.967 159.806C381.774 151.618 389.949 139.967 395.236 128.398L396.301 125.953C401.741 113.96 404.636 102.312 405.826 89.19L405.968 87.5879C406.594 80.7658 406.836 74.1242 406.348 67.2835L406.154 64.9249C406.063 63.6855 406 62.2786 405.932 60.7718C405.616 53.7529 405.203 44.5683 401.415 40.0703C389.477 53.6438 373.934 64.7082 358.698 74.2475L353.853 77.2195C345.837 82.3755 337.332 86.4914 328.759 90.6347L326.603 91.6752C308.948 100.307 290.112 106.912 271.351 112.685L268.896 113.435C257.425 116.966 245.879 120.003 234.202 122.76L233.183 123L233.183 123C226.39 124.601 219.603 126.2 212.878 128.073L210.796 128.667C208.488 129.321 206.212 130.016 203.925 130.748Z" fill="#00FFA1"/>
<path fill-rule="evenodd" clip-rule="evenodd" d="M147.571 0L56.0356 44.5522V208.514C76.7044 183.798 104.495 154.873 147.571 138.084V0ZM147.571 156.37C90.8517 196.922 82.2602 205.525 56.0356 242.96V264.768L147.571 176.936V156.37Z" fill="#00FFA1"/>
</svg>
